<?xml version="1.0" standalone="no"?>
<!DOCTYPE svg PUBLIC "-//W3C//DTD SVG 20010904//EN"
 "http://www.w3.org/TR/2001/REC-SVG-20010904/DTD/svg10.dtd">
<svg version="1.0" xmlns="http://www.w3.org/2000/svg"
 width="718.000000pt" height="650.000000pt" viewBox="0 0 718.000000 650.000000"
 preserveAspectRatio="xMidYMid meet">

<g transform="translate(0.000000,650.000000) scale(0.100000,-0.100000)"
fill="#000000" stroke="none">
<path d="M0 3250 l0 -3250 3590 0 3590 0 0 3250 0 3250 -3590 0 -3590 0 0
-3250z m1199 1268 c485 -1395 979 -2814 1071 -3073 179 -503 220 -621 220
-628 0 -4 -132 -7 -294 -7 l-293 0 -16 43 c-9 23 -47 132 -85 242 -120 346
-560 1611 -914 2625 -556 1596 -598 1717 -598 1724 0 3 132 6 293 6 l292 0
324 -932z m486 885 c9 -27 119 -349 245 -718 244 -716 606 -1772 728 -2125 41
-118 125 -366 187 -550 63 -184 147 -432 188 -550 42 -118 109 -313 151 -432
l75 -218 -297 0 -297 0 -53 153 c-29 83 -147 429 -261 767 -262 771 -1204
3531 -1237 3623 -13 38 -24 75 -24 83 0 12 44 14 289 14 l289 0 17 -47z m4305
36 c0 -10 -157 -473 -856 -2521 -137 -401 -251 -728 -254 -728 -3 1 -69 194
-146 430 l-142 429 98 288 c54 158 229 673 390 1143 160 470 301 881 312 913
l21 57 288 0 c207 0 289 -3 289 -11z m800 5 c0 -4 -93 -273 -206 -598 -406
-1165 -508 -1457 -904 -2595 -220 -635 -405 -1161 -409 -1170 -6 -10 -56 127
-150 415 l-142 429 499 1435 c275 789 550 1582 613 1763 l113 327 293 0 c161
0 293 -3 293 -6z m-2922 -919 c302 -857 457 -1298 742 -2100 67 -187 152 -430
190 -540 64 -185 359 -1018 375 -1058 7 -16 -9 -17 -290 -15 l-297 3 -70 200
c-38 110 -164 477 -278 815 -365 1080 -695 2040 -700 2040 -3 0 -133 -375
-289 -833 -156 -457 -287 -836 -291 -840 -4 -5 -69 177 -143 403 l-136 412
239 677 c131 372 319 906 418 1186 203 574 201 569 207 564 2 -2 148 -414 323
-914z m-41 -2028 c155 -446 350 -1005 433 -1240 82 -236 150 -433 150 -438 0
-5 -123 -9 -293 -9 l-293 0 -140 405 c-76 222 -141 405 -144 405 -3 0 -47
-124 -99 -275 -52 -152 -98 -272 -101 -268 -10 11 -280 824 -280 843 0 19 473
1390 480 1390 3 0 132 -366 287 -813z"/>
</g>
</svg>
