<?xml version="1.0" standalone="no"?>
<!DOCTYPE svg PUBLIC "-//W3C//DTD SVG 20010904//EN"
 "http://www.w3.org/TR/2001/REC-SVG-20010904/DTD/svg10.dtd">
<svg version="1.0" xmlns="http://www.w3.org/2000/svg"
 width="732.000000pt" height="597.000000pt" viewBox="0 0 732.000000 597.000000"
 preserveAspectRatio="xMidYMid meet">

<g transform="translate(0.000000,597.000000) scale(0.100000,-0.100000)"
fill="#000000" stroke="none">
<path d="M2164 4321 c-142 -64 -149 -253 -12 -320 25 -11 59 -21 76 -21 40 0
99 24 128 51 14 13 32 19 50 17 l28 -3 123 -435 c67 -239 186 -663 265 -942
78 -279 145 -504 149 -500 7 9 819 1956 819 1965 0 4 -46 7 -102 7 l-103 0
-290 -695 c-159 -382 -292 -689 -296 -682 -4 6 -98 336 -209 731 -111 396
-204 725 -207 733 -4 9 -30 13 -95 13 l-90 0 -39 39 c-58 60 -124 74 -195 42z"/>
<path d="M5046 4133 c-3 -10 -48 -173 -100 -363 -189 -686 -277 -1005 -280
-1015 -5 -13 1 -26 -310 708 -147 345 -272 639 -278 652 -11 24 -14 25 -116
25 -79 0 -103 -3 -99 -12 3 -7 44 -105 92 -218 48 -113 233 -549 412 -970 178
-421 328 -769 332 -773 5 -5 11 4 14 20 3 15 125 462 271 992 146 529 266 965
266 967 0 2 -45 4 -99 4 -86 0 -100 -2 -105 -17z"/>
<path d="M5838 3903 c-76 -248 -583 -1891 -634 -2055 -26 -82 -29 -88 -74
-116 -78 -49 -109 -138 -75 -219 21 -50 42 -72 90 -94 117 -54 248 28 249 154
1 30 -7 67 -17 87 l-17 36 375 1214 c206 668 375 1220 375 1227 0 10 -25 13
-98 13 l-98 0 -76 -247z"/>
<path d="M1720 3854 c-75 -32 -110 -86 -110 -167 0 -64 26 -109 83 -146 30
-20 41 -36 56 -85 11 -34 123 -392 249 -796 127 -404 282 -899 345 -1100 l115
-365 102 -3 c94 -2 101 -1 96 15 -3 10 -170 544 -371 1187 l-367 1170 22 44
c73 146 -73 310 -220 246z"/>
<path d="M3820 2879 c0 -4 -146 -381 -325 -839 -179 -458 -325 -837 -325 -842
0 -5 45 -7 102 -6 l102 3 225 577 c124 318 227 575 230 572 3 -3 116 -283 251
-622 l245 -617 144 -3 c143 -3 144 -3 177 -32 86 -75 206 -58 271 39 17 26 23
48 23 91 0 155 -177 233 -294 130 -31 -28 -39 -30 -112 -30 l-79 0 -309 780
c-285 719 -325 817 -326 799z"/>
</g>
</svg>
